<mxfile host="app.diagrams.net" modified="2021-10-18T17:09:36.942Z" agent="5.0 (Windows NT 10.0; Win64; x64) AppleWebKit/537.36 (KHTML, like Gecko) Chrome/96.0.1047.0 Safari/537.36 Edg/96.0.1047.0" etag="uINLuLcPRw9iTXS50bkA" version="15.5.5" type="github">
  <diagram id="dVRzww2kgiZr9KhMUQVP" name="Page-1">
    <mxGraphModel dx="1374" dy="834" grid="1" gridSize="10" guides="1" tooltips="1" connect="1" arrows="1" fold="1" page="1" pageScale="1" pageWidth="850" pageHeight="1100" math="0" shadow="0">
      <root>
        <mxCell id="0" />
        <mxCell id="1" parent="0" />
        <mxCell id="EeEelSQtlgUi82K_hGk0-2" value="Reader Web Portal" style="rounded=0;whiteSpace=wrap;html=1;" vertex="1" parent="1">
          <mxGeometry x="160" y="60" width="120" height="60" as="geometry" />
        </mxCell>
        <mxCell id="EeEelSQtlgUi82K_hGk0-7" value="Mobile Application" style="rounded=0;whiteSpace=wrap;html=1;" vertex="1" parent="1">
          <mxGeometry x="550" y="60" width="120" height="60" as="geometry" />
        </mxCell>
        <mxCell id="EeEelSQtlgUi82K_hGk0-9" value="Server" style="swimlane;horizontal=0;" vertex="1" parent="1">
          <mxGeometry x="280" y="320" width="260" height="250" as="geometry">
            <mxRectangle x="280" y="240" width="30" height="60" as="alternateBounds" />
          </mxGeometry>
        </mxCell>
        <mxCell id="EeEelSQtlgUi82K_hGk0-50" value="Application Server" style="swimlane;" vertex="1" parent="EeEelSQtlgUi82K_hGk0-9">
          <mxGeometry x="45" y="15" width="200" height="220" as="geometry" />
        </mxCell>
        <mxCell id="EeEelSQtlgUi82K_hGk0-51" value="Business Logic" style="whiteSpace=wrap;html=1;" vertex="1" parent="EeEelSQtlgUi82K_hGk0-50">
          <mxGeometry x="10" y="85" width="180" height="60" as="geometry" />
        </mxCell>
        <mxCell id="EeEelSQtlgUi82K_hGk0-53" value="HTTP Communication Layer" style="whiteSpace=wrap;html=1;" vertex="1" parent="EeEelSQtlgUi82K_hGk0-50">
          <mxGeometry x="10" y="30" width="180" height="50" as="geometry" />
        </mxCell>
        <mxCell id="EeEelSQtlgUi82K_hGk0-55" value="Data Access Layer" style="whiteSpace=wrap;html=1;" vertex="1" parent="EeEelSQtlgUi82K_hGk0-50">
          <mxGeometry x="11" y="150" width="180" height="50" as="geometry" />
        </mxCell>
        <mxCell id="EeEelSQtlgUi82K_hGk0-10" value="HTTP Client" style="swimlane;horizontal=0;" vertex="1" parent="1">
          <mxGeometry x="130" y="30" width="160" height="120" as="geometry" />
        </mxCell>
        <mxCell id="EeEelSQtlgUi82K_hGk0-11" value="HTTP Client" style="swimlane;horizontal=0;" vertex="1" parent="1">
          <mxGeometry x="520" y="30" width="160" height="120" as="geometry" />
        </mxCell>
        <mxCell id="EeEelSQtlgUi82K_hGk0-12" value="Request" style="html=1;shadow=0;dashed=0;align=center;verticalAlign=middle;shape=mxgraph.arrows2.arrow;dy=0.6;dx=40;notch=0;rotation=-225;" vertex="1" parent="1">
          <mxGeometry x="511.3299999999999" y="200" width="177.34" height="50.62" as="geometry" />
        </mxCell>
        <mxCell id="EeEelSQtlgUi82K_hGk0-13" value="Request" style="html=1;shadow=0;dashed=0;align=center;verticalAlign=middle;shape=mxgraph.arrows2.arrow;dy=0.6;dx=40;notch=0;rotation=55;" vertex="1" parent="1">
          <mxGeometry x="160" y="200" width="158.67" height="50.62" as="geometry" />
        </mxCell>
        <mxCell id="EeEelSQtlgUi82K_hGk0-14" value="Response" style="html=1;shadow=0;dashed=0;align=center;verticalAlign=middle;shape=mxgraph.arrows2.arrow;dy=0.6;dx=40;notch=0;rotation=65;direction=west;" vertex="1" parent="1">
          <mxGeometry x="249.99999999999994" y="120" width="177.34" height="50.62" as="geometry" />
        </mxCell>
        <mxCell id="EeEelSQtlgUi82K_hGk0-15" value="Response" style="html=1;shadow=0;dashed=0;align=center;verticalAlign=middle;shape=mxgraph.arrows2.arrow;dy=0.6;dx=40;notch=0;rotation=30;direction=north;" vertex="1" parent="1">
          <mxGeometry x="439.99999999999994" y="60" width="50.62" height="177.34" as="geometry" />
        </mxCell>
        <mxCell id="EeEelSQtlgUi82K_hGk0-16" value="Table" style="shape=table;startSize=30;container=1;collapsible=0;childLayout=tableLayout;fixedRows=1;rowLines=0;fontStyle=1;align=center;pointerEvents=1;" vertex="1" parent="1">
          <mxGeometry x="382" y="776" width="120" height="140" as="geometry" />
        </mxCell>
        <mxCell id="EeEelSQtlgUi82K_hGk0-17" value="" style="shape=partialRectangle;html=1;whiteSpace=wrap;collapsible=0;dropTarget=0;pointerEvents=1;fillColor=none;top=0;left=0;bottom=1;right=0;points=[[0,0.5],[1,0.5]];portConstraint=eastwest;" vertex="1" parent="EeEelSQtlgUi82K_hGk0-16">
          <mxGeometry y="30" width="120" height="30" as="geometry" />
        </mxCell>
        <mxCell id="EeEelSQtlgUi82K_hGk0-18" value="1" style="shape=partialRectangle;html=1;whiteSpace=wrap;connectable=0;fillColor=none;top=0;left=0;bottom=0;right=0;overflow=hidden;pointerEvents=1;" vertex="1" parent="EeEelSQtlgUi82K_hGk0-17">
          <mxGeometry width="27" height="30" as="geometry">
            <mxRectangle width="27" height="30" as="alternateBounds" />
          </mxGeometry>
        </mxCell>
        <mxCell id="EeEelSQtlgUi82K_hGk0-19" value="Value 1" style="shape=partialRectangle;html=1;whiteSpace=wrap;connectable=0;fillColor=none;top=0;left=0;bottom=0;right=0;align=left;spacingLeft=6;overflow=hidden;pointerEvents=1;" vertex="1" parent="EeEelSQtlgUi82K_hGk0-17">
          <mxGeometry x="27" width="93" height="30" as="geometry">
            <mxRectangle width="93" height="30" as="alternateBounds" />
          </mxGeometry>
        </mxCell>
        <mxCell id="EeEelSQtlgUi82K_hGk0-20" value="" style="shape=partialRectangle;html=1;whiteSpace=wrap;collapsible=0;dropTarget=0;pointerEvents=1;fillColor=none;top=0;left=0;bottom=0;right=0;points=[[0,0.5],[1,0.5]];portConstraint=eastwest;" vertex="1" parent="EeEelSQtlgUi82K_hGk0-16">
          <mxGeometry y="60" width="120" height="30" as="geometry" />
        </mxCell>
        <mxCell id="EeEelSQtlgUi82K_hGk0-21" value="2" style="shape=partialRectangle;html=1;whiteSpace=wrap;connectable=0;fillColor=none;top=0;left=0;bottom=0;right=0;overflow=hidden;pointerEvents=1;" vertex="1" parent="EeEelSQtlgUi82K_hGk0-20">
          <mxGeometry width="27" height="30" as="geometry">
            <mxRectangle width="27" height="30" as="alternateBounds" />
          </mxGeometry>
        </mxCell>
        <mxCell id="EeEelSQtlgUi82K_hGk0-22" value="Value 2" style="shape=partialRectangle;html=1;whiteSpace=wrap;connectable=0;fillColor=none;top=0;left=0;bottom=0;right=0;align=left;spacingLeft=6;overflow=hidden;pointerEvents=1;" vertex="1" parent="EeEelSQtlgUi82K_hGk0-20">
          <mxGeometry x="27" width="93" height="30" as="geometry">
            <mxRectangle width="93" height="30" as="alternateBounds" />
          </mxGeometry>
        </mxCell>
        <mxCell id="EeEelSQtlgUi82K_hGk0-23" value="" style="shape=partialRectangle;html=1;whiteSpace=wrap;collapsible=0;dropTarget=0;pointerEvents=1;fillColor=none;top=0;left=0;bottom=0;right=0;points=[[0,0.5],[1,0.5]];portConstraint=eastwest;" vertex="1" parent="EeEelSQtlgUi82K_hGk0-16">
          <mxGeometry y="90" width="120" height="30" as="geometry" />
        </mxCell>
        <mxCell id="EeEelSQtlgUi82K_hGk0-24" value="3" style="shape=partialRectangle;html=1;whiteSpace=wrap;connectable=0;fillColor=none;top=0;left=0;bottom=0;right=0;overflow=hidden;pointerEvents=1;" vertex="1" parent="EeEelSQtlgUi82K_hGk0-23">
          <mxGeometry width="27" height="30" as="geometry">
            <mxRectangle width="27" height="30" as="alternateBounds" />
          </mxGeometry>
        </mxCell>
        <mxCell id="EeEelSQtlgUi82K_hGk0-25" value="Value 3" style="shape=partialRectangle;html=1;whiteSpace=wrap;connectable=0;fillColor=none;top=0;left=0;bottom=0;right=0;align=left;spacingLeft=6;overflow=hidden;pointerEvents=1;" vertex="1" parent="EeEelSQtlgUi82K_hGk0-23">
          <mxGeometry x="27" width="93" height="30" as="geometry">
            <mxRectangle width="93" height="30" as="alternateBounds" />
          </mxGeometry>
        </mxCell>
        <mxCell id="EeEelSQtlgUi82K_hGk0-26" value="Table" style="shape=table;startSize=30;container=1;collapsible=0;childLayout=tableLayout;fixedRows=1;rowLines=0;fontStyle=1;align=center;pointerEvents=1;" vertex="1" parent="1">
          <mxGeometry x="542" y="776" width="110" height="140" as="geometry" />
        </mxCell>
        <mxCell id="EeEelSQtlgUi82K_hGk0-27" value="" style="shape=partialRectangle;html=1;whiteSpace=wrap;collapsible=0;dropTarget=0;pointerEvents=1;fillColor=none;top=0;left=0;bottom=1;right=0;points=[[0,0.5],[1,0.5]];portConstraint=eastwest;" vertex="1" parent="EeEelSQtlgUi82K_hGk0-26">
          <mxGeometry y="30" width="110" height="30" as="geometry" />
        </mxCell>
        <mxCell id="EeEelSQtlgUi82K_hGk0-28" value="1" style="shape=partialRectangle;html=1;whiteSpace=wrap;connectable=0;fillColor=none;top=0;left=0;bottom=0;right=0;overflow=hidden;pointerEvents=1;" vertex="1" parent="EeEelSQtlgUi82K_hGk0-27">
          <mxGeometry width="24" height="30" as="geometry">
            <mxRectangle width="24" height="30" as="alternateBounds" />
          </mxGeometry>
        </mxCell>
        <mxCell id="EeEelSQtlgUi82K_hGk0-29" value="Value 1" style="shape=partialRectangle;html=1;whiteSpace=wrap;connectable=0;fillColor=none;top=0;left=0;bottom=0;right=0;align=left;spacingLeft=6;overflow=hidden;pointerEvents=1;" vertex="1" parent="EeEelSQtlgUi82K_hGk0-27">
          <mxGeometry x="24" width="86" height="30" as="geometry">
            <mxRectangle width="86" height="30" as="alternateBounds" />
          </mxGeometry>
        </mxCell>
        <mxCell id="EeEelSQtlgUi82K_hGk0-30" value="" style="shape=partialRectangle;html=1;whiteSpace=wrap;collapsible=0;dropTarget=0;pointerEvents=1;fillColor=none;top=0;left=0;bottom=0;right=0;points=[[0,0.5],[1,0.5]];portConstraint=eastwest;" vertex="1" parent="EeEelSQtlgUi82K_hGk0-26">
          <mxGeometry y="60" width="110" height="30" as="geometry" />
        </mxCell>
        <mxCell id="EeEelSQtlgUi82K_hGk0-31" value="2" style="shape=partialRectangle;html=1;whiteSpace=wrap;connectable=0;fillColor=none;top=0;left=0;bottom=0;right=0;overflow=hidden;pointerEvents=1;" vertex="1" parent="EeEelSQtlgUi82K_hGk0-30">
          <mxGeometry width="24" height="30" as="geometry">
            <mxRectangle width="24" height="30" as="alternateBounds" />
          </mxGeometry>
        </mxCell>
        <mxCell id="EeEelSQtlgUi82K_hGk0-32" value="Value 2" style="shape=partialRectangle;html=1;whiteSpace=wrap;connectable=0;fillColor=none;top=0;left=0;bottom=0;right=0;align=left;spacingLeft=6;overflow=hidden;pointerEvents=1;" vertex="1" parent="EeEelSQtlgUi82K_hGk0-30">
          <mxGeometry x="24" width="86" height="30" as="geometry">
            <mxRectangle width="86" height="30" as="alternateBounds" />
          </mxGeometry>
        </mxCell>
        <mxCell id="EeEelSQtlgUi82K_hGk0-33" value="" style="shape=partialRectangle;html=1;whiteSpace=wrap;collapsible=0;dropTarget=0;pointerEvents=1;fillColor=none;top=0;left=0;bottom=0;right=0;points=[[0,0.5],[1,0.5]];portConstraint=eastwest;" vertex="1" parent="EeEelSQtlgUi82K_hGk0-26">
          <mxGeometry y="90" width="110" height="30" as="geometry" />
        </mxCell>
        <mxCell id="EeEelSQtlgUi82K_hGk0-34" value="3" style="shape=partialRectangle;html=1;whiteSpace=wrap;connectable=0;fillColor=none;top=0;left=0;bottom=0;right=0;overflow=hidden;pointerEvents=1;" vertex="1" parent="EeEelSQtlgUi82K_hGk0-33">
          <mxGeometry width="24" height="30" as="geometry">
            <mxRectangle width="24" height="30" as="alternateBounds" />
          </mxGeometry>
        </mxCell>
        <mxCell id="EeEelSQtlgUi82K_hGk0-35" value="Value 3" style="shape=partialRectangle;html=1;whiteSpace=wrap;connectable=0;fillColor=none;top=0;left=0;bottom=0;right=0;align=left;spacingLeft=6;overflow=hidden;pointerEvents=1;" vertex="1" parent="EeEelSQtlgUi82K_hGk0-33">
          <mxGeometry x="24" width="86" height="30" as="geometry">
            <mxRectangle width="86" height="30" as="alternateBounds" />
          </mxGeometry>
        </mxCell>
        <mxCell id="EeEelSQtlgUi82K_hGk0-36" value="Table" style="shape=table;startSize=30;container=1;collapsible=0;childLayout=tableLayout;fixedRows=1;rowLines=0;fontStyle=1;align=center;pointerEvents=1;" vertex="1" parent="1">
          <mxGeometry x="382" y="946" width="120" height="120" as="geometry" />
        </mxCell>
        <mxCell id="EeEelSQtlgUi82K_hGk0-37" value="" style="shape=partialRectangle;html=1;whiteSpace=wrap;collapsible=0;dropTarget=0;pointerEvents=1;fillColor=none;top=0;left=0;bottom=1;right=0;points=[[0,0.5],[1,0.5]];portConstraint=eastwest;" vertex="1" parent="EeEelSQtlgUi82K_hGk0-36">
          <mxGeometry y="30" width="120" height="30" as="geometry" />
        </mxCell>
        <mxCell id="EeEelSQtlgUi82K_hGk0-38" value="1" style="shape=partialRectangle;html=1;whiteSpace=wrap;connectable=0;fillColor=none;top=0;left=0;bottom=0;right=0;overflow=hidden;pointerEvents=1;" vertex="1" parent="EeEelSQtlgUi82K_hGk0-37">
          <mxGeometry width="27" height="30" as="geometry">
            <mxRectangle width="27" height="30" as="alternateBounds" />
          </mxGeometry>
        </mxCell>
        <mxCell id="EeEelSQtlgUi82K_hGk0-39" value="Value 1" style="shape=partialRectangle;html=1;whiteSpace=wrap;connectable=0;fillColor=none;top=0;left=0;bottom=0;right=0;align=left;spacingLeft=6;overflow=hidden;pointerEvents=1;" vertex="1" parent="EeEelSQtlgUi82K_hGk0-37">
          <mxGeometry x="27" width="93" height="30" as="geometry">
            <mxRectangle width="93" height="30" as="alternateBounds" />
          </mxGeometry>
        </mxCell>
        <mxCell id="EeEelSQtlgUi82K_hGk0-40" value="" style="shape=partialRectangle;html=1;whiteSpace=wrap;collapsible=0;dropTarget=0;pointerEvents=1;fillColor=none;top=0;left=0;bottom=0;right=0;points=[[0,0.5],[1,0.5]];portConstraint=eastwest;" vertex="1" parent="EeEelSQtlgUi82K_hGk0-36">
          <mxGeometry y="60" width="120" height="30" as="geometry" />
        </mxCell>
        <mxCell id="EeEelSQtlgUi82K_hGk0-41" value="2" style="shape=partialRectangle;html=1;whiteSpace=wrap;connectable=0;fillColor=none;top=0;left=0;bottom=0;right=0;overflow=hidden;pointerEvents=1;" vertex="1" parent="EeEelSQtlgUi82K_hGk0-40">
          <mxGeometry width="27" height="30" as="geometry">
            <mxRectangle width="27" height="30" as="alternateBounds" />
          </mxGeometry>
        </mxCell>
        <mxCell id="EeEelSQtlgUi82K_hGk0-42" value="Value 2" style="shape=partialRectangle;html=1;whiteSpace=wrap;connectable=0;fillColor=none;top=0;left=0;bottom=0;right=0;align=left;spacingLeft=6;overflow=hidden;pointerEvents=1;" vertex="1" parent="EeEelSQtlgUi82K_hGk0-40">
          <mxGeometry x="27" width="93" height="30" as="geometry">
            <mxRectangle width="93" height="30" as="alternateBounds" />
          </mxGeometry>
        </mxCell>
        <mxCell id="EeEelSQtlgUi82K_hGk0-43" value="" style="shape=partialRectangle;html=1;whiteSpace=wrap;collapsible=0;dropTarget=0;pointerEvents=1;fillColor=none;top=0;left=0;bottom=0;right=0;points=[[0,0.5],[1,0.5]];portConstraint=eastwest;" vertex="1" parent="EeEelSQtlgUi82K_hGk0-36">
          <mxGeometry y="90" width="120" height="30" as="geometry" />
        </mxCell>
        <mxCell id="EeEelSQtlgUi82K_hGk0-44" value="3" style="shape=partialRectangle;html=1;whiteSpace=wrap;connectable=0;fillColor=none;top=0;left=0;bottom=0;right=0;overflow=hidden;pointerEvents=1;" vertex="1" parent="EeEelSQtlgUi82K_hGk0-43">
          <mxGeometry width="27" height="30" as="geometry">
            <mxRectangle width="27" height="30" as="alternateBounds" />
          </mxGeometry>
        </mxCell>
        <mxCell id="EeEelSQtlgUi82K_hGk0-45" value="Value 3" style="shape=partialRectangle;html=1;whiteSpace=wrap;connectable=0;fillColor=none;top=0;left=0;bottom=0;right=0;align=left;spacingLeft=6;overflow=hidden;pointerEvents=1;" vertex="1" parent="EeEelSQtlgUi82K_hGk0-43">
          <mxGeometry x="27" width="93" height="30" as="geometry">
            <mxRectangle width="93" height="30" as="alternateBounds" />
          </mxGeometry>
        </mxCell>
        <mxCell id="EeEelSQtlgUi82K_hGk0-46" value="" style="endArrow=none;html=1;rounded=0;entryX=0;entryY=0.5;entryDx=0;entryDy=0;exitX=1;exitY=0.5;exitDx=0;exitDy=0;" edge="1" parent="1" source="EeEelSQtlgUi82K_hGk0-20" target="EeEelSQtlgUi82K_hGk0-30">
          <mxGeometry width="50" height="50" relative="1" as="geometry">
            <mxPoint x="380" y="816" as="sourcePoint" />
            <mxPoint x="430" y="766" as="targetPoint" />
          </mxGeometry>
        </mxCell>
        <mxCell id="EeEelSQtlgUi82K_hGk0-47" value="" style="endArrow=none;html=1;rounded=0;entryX=0.5;entryY=1;entryDx=0;entryDy=0;exitX=0.5;exitY=0;exitDx=0;exitDy=0;" edge="1" parent="1" source="EeEelSQtlgUi82K_hGk0-36" target="EeEelSQtlgUi82K_hGk0-16">
          <mxGeometry width="50" height="50" relative="1" as="geometry">
            <mxPoint x="300" y="946" as="sourcePoint" />
            <mxPoint x="350" y="896" as="targetPoint" />
          </mxGeometry>
        </mxCell>
        <mxCell id="EeEelSQtlgUi82K_hGk0-57" value="" style="endArrow=classic;startArrow=classic;html=1;rounded=0;" edge="1" parent="1">
          <mxGeometry width="50" height="50" relative="1" as="geometry">
            <mxPoint x="424" y="503" as="sourcePoint" />
            <mxPoint x="424" y="473" as="targetPoint" />
          </mxGeometry>
        </mxCell>
        <mxCell id="EeEelSQtlgUi82K_hGk0-59" value="" style="endArrow=classic;startArrow=classic;html=1;rounded=0;" edge="1" parent="1">
          <mxGeometry width="50" height="50" relative="1" as="geometry">
            <mxPoint x="424" y="438" as="sourcePoint" />
            <mxPoint x="424" y="408" as="targetPoint" />
          </mxGeometry>
        </mxCell>
        <mxCell id="EeEelSQtlgUi82K_hGk0-60" value="Database" style="swimlane;horizontal=0;" vertex="1" parent="1">
          <mxGeometry x="345" y="766" width="320" height="310" as="geometry" />
        </mxCell>
        <mxCell id="EeEelSQtlgUi82K_hGk0-61" value="" style="endArrow=none;html=1;rounded=0;entryX=0.5;entryY=1;entryDx=0;entryDy=0;entryPerimeter=0;exitX=0.25;exitY=0;exitDx=0;exitDy=0;" edge="1" parent="1" source="EeEelSQtlgUi82K_hGk0-60" target="EeEelSQtlgUi82K_hGk0-1">
          <mxGeometry width="50" height="50" relative="1" as="geometry">
            <mxPoint x="450" y="680" as="sourcePoint" />
            <mxPoint x="450" y="770" as="targetPoint" />
          </mxGeometry>
        </mxCell>
        <mxCell id="EeEelSQtlgUi82K_hGk0-63" value="Administrative Web Portal" style="rounded=0;whiteSpace=wrap;html=1;" vertex="1" parent="1">
          <mxGeometry x="49" y="260" width="120" height="60" as="geometry" />
        </mxCell>
        <mxCell id="EeEelSQtlgUi82K_hGk0-64" value="HTTP Client" style="swimlane;horizontal=0;" vertex="1" parent="1">
          <mxGeometry x="19" y="230" width="160" height="120" as="geometry" />
        </mxCell>
        <mxCell id="EeEelSQtlgUi82K_hGk0-65" value="Visitor Web Portal" style="rounded=0;whiteSpace=wrap;html=1;" vertex="1" parent="1">
          <mxGeometry x="49" y="410" width="120" height="60" as="geometry" />
        </mxCell>
        <mxCell id="EeEelSQtlgUi82K_hGk0-66" value="HTTP Client" style="swimlane;horizontal=0;" vertex="1" parent="1">
          <mxGeometry x="19" y="380" width="160" height="120" as="geometry" />
        </mxCell>
        <mxCell id="EeEelSQtlgUi82K_hGk0-67" value="Public Web Site" style="rounded=0;whiteSpace=wrap;html=1;" vertex="1" parent="1">
          <mxGeometry x="49" y="550" width="120" height="60" as="geometry" />
        </mxCell>
        <mxCell id="EeEelSQtlgUi82K_hGk0-68" value="HTTP Client" style="swimlane;horizontal=0;" vertex="1" parent="1">
          <mxGeometry x="19" y="520" width="160" height="120" as="geometry" />
        </mxCell>
        <mxCell id="EeEelSQtlgUi82K_hGk0-1" value="Books Database" style="shape=cylinder3;whiteSpace=wrap;html=1;boundedLbl=1;backgroundOutline=1;size=15;" vertex="1" parent="1">
          <mxGeometry x="390" y="620" width="70" height="90" as="geometry" />
        </mxCell>
        <mxCell id="EeEelSQtlgUi82K_hGk0-56" value="" style="endArrow=classic;startArrow=classic;html=1;rounded=0;entryX=0.5;entryY=1;entryDx=0;entryDy=0;" edge="1" parent="1" source="EeEelSQtlgUi82K_hGk0-1" target="EeEelSQtlgUi82K_hGk0-55">
          <mxGeometry width="50" height="50" relative="1" as="geometry">
            <mxPoint x="423" y="570" as="sourcePoint" />
            <mxPoint x="500" y="580" as="targetPoint" />
          </mxGeometry>
        </mxCell>
        <mxCell id="EeEelSQtlgUi82K_hGk0-48" value="HTTP Server (IIS, Apache)" style="rounded=0;whiteSpace=wrap;html=1;" vertex="1" parent="1">
          <mxGeometry x="304.5" y="235" width="213" height="70" as="geometry" />
        </mxCell>
        <mxCell id="EeEelSQtlgUi82K_hGk0-62" value="" style="endArrow=classic;startArrow=classic;html=1;rounded=0;exitX=0.5;exitY=0;exitDx=0;exitDy=0;entryX=0.566;entryY=1.029;entryDx=0;entryDy=0;entryPerimeter=0;" edge="1" parent="1" source="EeEelSQtlgUi82K_hGk0-50" target="EeEelSQtlgUi82K_hGk0-48">
          <mxGeometry width="50" height="50" relative="1" as="geometry">
            <mxPoint x="400" y="460" as="sourcePoint" />
            <mxPoint x="450" y="410" as="targetPoint" />
          </mxGeometry>
        </mxCell>
      </root>
    </mxGraphModel>
  </diagram>
</mxfile>
